<svg xmlns="http://www.w3.org/2000/svg" id="Laag_2" data-name="Laag 2" viewBox="0 0 164.33 20"><defs><style>.cls-1{fill:#161616;stroke-width:0}</style></defs><g id="Laag_1-2" data-name="Laag 1"><path d="M0 .32C0 .14.13 0 .32 0h6.19c.16 0 .4.1.53.24l2.18 2.18c.13.13.23.37.23.53v4.96c0 .18-.1.42-.23.53l-.76.79c-.13.13-.13.34-.03.45l.82.81c.11.13.21.37.21.53v6.06c0 .16-.1.4-.23.53l-2.18 2.18c-.13.13-.37.24-.53.24H.32a.31.31 0 0 1-.32-.32zm3.1 2.46c-.18 0-.32.13-.32.31v4.64c0 .18.13.32.32.32h2.26c.16 0 .42-.08.53-.21l.58-.55a1 1 0 0 0 .21-.55V4.09c0-.16-.11-.42-.21-.53l-.58-.58a.92.92 0 0 0-.53-.21H3.11Zm3.36 13.65a.92.92 0 0 0 .21-.53v-3.75c0-.18-.11-.42-.21-.55l-.53-.52c-.13-.13-.37-.24-.53-.24H3.09c-.18 0-.32.16-.32.31v5.74c0 .18.13.31.32.31h2.26c.16 0 .42-.1.53-.21l.58-.57ZM21.52 9.53c0 .18-.11.42-.23.55l-.82.81c-.13.13-.21.37-.16.53l1.44 8.26c.02.18-.11.32-.26.32h-2.2c-.18 0-.34-.13-.37-.32l-1.21-6.9c-.02-.16-.18-.29-.37-.29h-2.18c-.16 0-.32.13-.29.29v6.9c0 .16-.16.32-.31.32h-2.15c-.18 0-.32-.13-.34-.32V.34c0-.18.13-.32.31-.32h6.17c.18 0 .42.1.55.24l2.18 2.18c.13.13.23.37.23.52v6.56Zm-3.02-.61c.13-.13.24-.37.24-.55V4.12c0-.16-.1-.42-.24-.53l-.55-.55c-.13-.13-.37-.24-.52-.24h-2.26c-.16 0-.32.16-.32.32v6.25c0 .18.16.31.32.31h2.26c.16 0 .39-.08.52-.21zM29 .32a.42.42 0 0 1 .39-.29h2.13c.15-.03.34.13.37.29l4.72 19.37c.05.18-.05.32-.24.32h-2.28c-.18 0-.34-.13-.39-.32l-.66-2.76c-.03-.16-.21-.31-.39-.29h-4.3c-.18 0-.37.13-.4.29l-.66 2.76c-.02.18-.21.32-.39.32h-2.26c-.18 0-.29-.13-.26-.32zm-.24 13.17c-.03.18.08.31.23.31h2.97c.18 0 .29-.16.23-.31l-1.65-6.8c-.05-.18-.11-.18-.16 0zM45.27 10.37c.05.16.11.16.11-.03V.32c0-.16.15-.32.31-.32h2.15c.18 0 .31.16.31.32v19.37c0 .18-.13.32-.31.32h-1.73c-.18 0-.37-.13-.42-.29L41.65 8.46c-.08-.16-.1-.13-.1.03V19.7c0 .18-.16.32-.32.32h-2.15c-.18 0-.31-.13-.31-.32V.34c0-.18.13-.32.31-.32h2.15c.18 0 .37.13.42.29l3.62 10.05ZM51.09 20c-.18 0-.31-.13-.31-.32V.34c0-.18.13-.32.31-.32h6.19c.16 0 .42.08.53.21l2.18 2.18c.13.13.24.37.24.55v14.09c0 .16-.11.42-.24.53l-2.18 2.18c-.1.13-.37.24-.53.24zm5.04-2.78c.16 0 .42-.1.53-.24l.55-.55c.13-.11.24-.37.24-.53V4.12c0-.18-.1-.42-.24-.55l-.55-.55c-.1-.1-.37-.21-.53-.21h-2.26c-.16 0-.32.13-.32.32V16.9c0 .16.16.31.32.31h2.26ZM75.97 10.37c.05.16.1.16.1-.03V.32c0-.16.16-.32.32-.32h2.15c.18 0 .31.16.31.32v19.37c0 .18-.13.32-.31.32h-1.73c-.18 0-.37-.13-.42-.29L72.35 8.46c-.08-.16-.1-.13-.1.03V19.7c0 .18-.16.32-.32.32h-2.15c-.18 0-.31-.13-.31-.32V.34c0-.18.13-.32.31-.32h2.15c.18 0 .37.13.42.29l3.62 10.05ZM89.51 2.52c0 .18-.16.32-.31.32h-4.62c-.18 0-.32.13-.32.31v3.73c0 .18.13.32.32.32h3.49c.16 0 .31.16.31.31v2.15c0 .18-.16.31-.31.31h-3.49c-.18 0-.32.16-.32.32v6.61c0 .18.13.31.32.31h4.62c.16 0 .31.13.31.32v2.15c0 .18-.16.32-.31.32h-7.4c-.19 0-.32-.13-.32-.32V.37c0-.19.13-.32.32-.32h7.4c.16 0 .31.13.31.32zM103.42 12.07c.02.16.08.16.11 0l2.1-11.76a.37.37 0 0 1 .37-.29h2.18c.19 0 .29.13.26.29L105 19.68c-.02.18-.18.32-.36.32h-2.42c-.18 0-.34-.13-.37-.32l-1.76-10.89c-.02-.18-.08-.18-.11 0l-1.73 10.89c-.02.18-.21.32-.37.32h-2.41c-.18 0-.34-.13-.37-.32L91.62.32c-.02-.16.08-.29.26-.29h2.2c.16 0 .34.13.37.29l2.1 11.76c.02.16.08.16.1 0L98.54.32c.03-.16.06-.29.08-.29h2.81s.08.13.1.29l1.89 11.76ZM119.8.26c.11-.13.37-.24.53-.24h3.54c.16 0 .39.1.53.24l2.18 2.18c.13.13.24.37.24.52v2.73c0 .18-.16.32-.32.32h-2.15c-.18 0-.31-.13-.31-.32V4.12c0-.16-.11-.42-.21-.53l-.58-.55a.84.84 0 0 0-.53-.24h-1.23c-.19 0-.42.11-.53.24l-.58.55c-.11.1-.21.37-.21.53V15.9c0 .18.11.42.21.53l.58.58c.1.11.34.21.53.21h1.23c.16 0 .42-.1.53-.21l.58-.58c.1-.1.21-.34.21-.53v-4.78a.3.3 0 0 0-.31-.31h-1.31a.32.32 0 0 1-.32-.31V8.35c0-.18.13-.32.32-.32h4.09c.16 0 .32.13.32.32v8.71c0 .16-.11.42-.24.53l-2.18 2.21c-.13.11-.37.21-.53.21h-3.54c-.16 0-.42-.11-.53-.21l-2.2-2.21a.92.92 0 0 1-.21-.53V2.96c0-.16.11-.39.21-.52l2.2-2.18ZM135.83 16.46c.13-.13.21-.37.21-.55V.34c0-.18.16-.32.31-.32h2.15c.18 0 .31.13.31.32v16.72c0 .18-.1.42-.21.55l-2.18 2.18c-.13.11-.36.21-.55.21h-3.52c-.19 0-.42-.11-.55-.21l-2.18-2.18a1 1 0 0 1-.21-.55V.34c0-.18.13-.32.31-.32h2.15c.16 0 .31.13.31.32V15.9c0 .18.11.42.21.55l.55.55c.13.11.37.21.55.21h1.21c.18 0 .42-.1.55-.21l.56-.55ZM146.75 5.96c.05.18.16.18.24 0l2.28-5.64c.05-.16.26-.29.42-.29h2.39c.16 0 .26.13.19.29l-3.88 9.63c-.06.16-.11.44-.11.6v9.13c0 .18-.16.32-.31.32h-2.16c-.18 0-.31-.13-.31-.32V10.6c0-.18-.05-.45-.13-.6L141.49.32c-.08-.16.02-.29.18-.29h2.39c.16 0 .37.13.42.29l2.28 5.64ZM157.32.26c.13-.13.37-.24.53-.24h3.54c.18 0 .42.1.55.24l2.18 2.18c.11.13.21.37.21.52v2.73c0 .18-.13.32-.31.32h-2.15c-.16 0-.31-.13-.31-.32V4.12c0-.16-.08-.42-.21-.53l-.55-.58c-.13-.1-.37-.21-.55-.21h-1.23c-.16 0-.4.11-.53.21l-.55.58c-.13.1-.24.37-.24.53V6.9c0 .16.1.42.21.53l.58.55c.11.13.34.24.53.24h2.39c.16 0 .42.1.53.21l2.2 2.18c.11.13.21.37.21.55v5.9c0 .16-.11.42-.21.53l-2.18 2.21a1 1 0 0 1-.55.21h-3.54c-.16 0-.39-.11-.53-.21l-2.18-2.21a.84.84 0 0 1-.24-.53V13.7c0-.18.16-.31.32-.31h2.15a.3.3 0 0 1 .31.31v2.2c0 .18.1.42.24.55l.55.55c.13.11.37.21.53.21h1.23c.18 0 .42-.1.55-.21l.55-.55c.13-.13.21-.37.21-.55v-3.6c0-.18-.08-.42-.21-.55l-.58-.55c-.11-.13-.35-.21-.53-.21h-2.39c-.16 0-.42-.11-.53-.24l-2.2-2.18a1 1 0 0 1-.21-.55V2.96c0-.16.11-.39.24-.52l2.18-2.18Z" class="cls-1"/></g></svg>