<?xml version="1.0" encoding="UTF-8"?>
<svg id="Laag_2" data-name="Laag 2" xmlns="http://www.w3.org/2000/svg" viewBox="0 0 145.52 20">
  <defs>
    <style>.cls-1 {
  fill: #161616;
  stroke-width: 0;
}
</style>
  </defs>
  <g id="Laag_1-2" data-name="Laag 1">
    <g>
      <polyline class="cls-1" points="8.76 .5 13.67 .5 7.62 9.51 14.2 19.5 9.1 19.5 4 11.28 3.97 11.28 3.97 19.53 0 19.53 0 .5 3.94 .5 3.94 8.35 3.97 8.35"></polyline>
      <path class="cls-1" d="M29.32.5v10.02c0,2.46-.13,5.17-2.68,5.17s-2.68-2.71-2.68-5.17V.5h-3.94v10.68c0,2.46.09,4.85,1.61,6.71,1.26,1.57,3.28,2.11,5.04,2.11s3.78-.57,5.04-2.11c1.51-1.83,1.61-4.25,1.61-6.71V.5"></path>
      <polyline class="cls-1" points="40.63 19.5 44.57 19.5 44.57 7.87 44.6 7.87 51.84 19.5 55.78 19.5 55.78 .5 51.84 .5 51.84 12.13 51.81 12.13 44.57 .5 40.63 .5"></polyline>
      <path class="cls-1" d="M73.13,1.57c-1.35-.94-3.21-1.57-4.76-1.57-3.06,0-5.23,2.52-5.23,6.36s1.64,4.47,4.13,5.35c.85.31,2.39.79,2.39,2.17s-.98,1.92-1.92,1.92c-1.35,0-2.52-.88-3.5-1.95l-1.7,3.97c1.54,1.35,3.43,2.17,5.35,2.17,1.54,0,3.12-.54,4.31-1.8,1.2-1.29,1.57-3.21,1.57-5.1,0-3.09-1.64-4.41-3.75-5.2l-1.01-.38c-.69-.28-1.76-.69-1.76-1.83,0-1.07.98-1.57,1.7-1.57.98,0,1.89.5,2.61,1.26"></path>
      <polyline class="cls-1" points="86.49 4.69 89.76 4.69 89.76 .5 79.28 .5 79.28 4.69 82.55 4.69 82.55 19.5 86.49 19.5"></polyline>
      <polyline class="cls-1" points="141.59 19.5 145.52 19.5 145.52 .5 136.83 .5 136.83 4.69 141.56 4.69"></polyline>
      <polyline class="cls-1" points="105.18 12.16 105.18 19.5 109.11 19.5 109.11 .5 105.18 .5 105.18 8.28 99.48 8.28 99.48 .5 95.54 .5 95.54 19.5 99.48 19.5 99.48 12.16"></polyline>
      <path class="cls-1" d="M127.29.5l-.98,3.31h-5.48l-1.04-3.31h-4.19l5.86,18.99h4.31l5.73-18.99h-4.22ZM123.57,13.61h-.03l-1.64-6.05h3.28l-1.61,6.05Z"></path>
    </g>
  </g>
</svg>