<svg xmlns="http://www.w3.org/2000/svg" id="Laag_2" data-name="Laag 2" viewBox="0 0 145.52 20"><defs><style>.cls-1{fill:#161616;stroke-width:0}</style></defs><g id="Laag_1-2" data-name="Laag 1"><path d="M8.76.5h4.91L7.62 9.51l6.58 9.99H9.1L4 11.28h-.03v8.25H0V.5h3.94v7.85h.03M29.32.5v10.02c0 2.46-.13 5.17-2.68 5.17s-2.68-2.71-2.68-5.17V.5h-3.94v10.68c0 2.46.09 4.85 1.61 6.71 1.26 1.57 3.28 2.11 5.04 2.11s3.78-.57 5.04-2.11c1.51-1.83 1.61-4.25 1.61-6.71V.5M40.63 19.5h3.94V7.87h.03l7.24 11.63h3.94V.5h-3.94v11.63h-.03L44.57.5h-3.94M73.13 1.57C71.78.63 69.92 0 68.37 0c-3.06 0-5.23 2.52-5.23 6.36s1.64 4.47 4.13 5.35c.85.31 2.39.79 2.39 2.17s-.98 1.92-1.92 1.92c-1.35 0-2.52-.88-3.5-1.95l-1.7 3.97c1.54 1.35 3.43 2.17 5.35 2.17 1.54 0 3.12-.54 4.31-1.8 1.2-1.29 1.57-3.21 1.57-5.1 0-3.09-1.64-4.41-3.75-5.2l-1.01-.38c-.69-.28-1.76-.69-1.76-1.83 0-1.07.98-1.57 1.7-1.57.98 0 1.89.5 2.61 1.26M86.49 4.69h3.27V.5H79.28v4.19h3.27V19.5h3.94M141.59 19.5h3.93V.5h-8.69v4.19h4.73M105.18 12.16v7.34h3.93V.5h-3.93v7.78h-5.7V.5h-3.94v19h3.94v-7.34M127.29.5l-.98 3.31h-5.48L119.79.5h-4.19l5.86 18.99h4.31L131.5.5h-4.22Zm-3.72 13.11h-.03l-1.64-6.05h3.28z" class="cls-1"/></g></svg>