<?xml version="1.0" encoding="UTF-8"?>
<svg id="Laag_2" data-name="Laag 2" xmlns="http://www.w3.org/2000/svg" viewBox="0 0 71.65 20">
  <defs>
    <style>.cls-1 {
  fill: #161616;
  stroke-width: 0;
}
</style>
  </defs>
  <g id="Laag_1-2" data-name="Laag 1">
    <g>
      <path class="cls-1" d="M8.78,14.06c0,1.49-1.53,2-2.43,2s-2.43-.5-2.43-2V5.94c0-1.49,1.53-2,2.43-2s2.43.5,2.43,2v8.13ZM6.35,0C2.01.01,0,3.05,0,5.63v8.73c0,2.58,2.01,5.62,6.35,5.63,4.34-.01,6.35-3.05,6.35-5.63V5.63C12.7,3.05,10.68.01,6.35,0Z"></path>
      <polygon class="cls-1" points="34.17 19.64 34.17 12.04 40.03 12.04 40.03 8.14 34.2 8.14 34.2 4.27 40.99 4.27 40.99 .35 30.26 .35 30.26 19.64 34.17 19.64"></polygon>
      <path class="cls-1" d="M47.63,6.37l1.57,6.07h-3.16l1.6-6.07ZM51.06,19.64h3.91L49.85.35h-4.57l-5.03,19.29h3.93l.9-3.42h5.1l.88,3.42Z"></path>
      <polygon class="cls-1" points="23.27 9.99 28.26 .35 23.73 .35 21 5.97 18.26 .35 13.73 .35 18.73 9.99 13.7 19.64 18.29 19.64 21 14.04 23.7 19.64 28.29 19.64 23.27 9.99"></polygon>
      <polygon class="cls-1" points="67.58 .35 64.13 7.77 60.63 .35 56.61 .35 56.61 19.64 60.45 19.64 60.45 8.67 62.91 13.8 65.36 13.8 67.82 8.69 67.82 19.64 71.65 19.64 71.65 .35 67.58 .35"></polygon>
    </g>
  </g>
</svg>