<svg xmlns="http://www.w3.org/2000/svg" id="Laag_2" data-name="Laag 2" viewBox="0 0 71.65 20"><defs><style>.cls-1{fill:#161616;stroke-width:0}</style></defs><g id="Laag_1-2" data-name="Laag 1"><path d="M8.78 14.06c0 1.49-1.53 2-2.43 2s-2.43-.5-2.43-2V5.94c0-1.49 1.53-2 2.43-2s2.43.5 2.43 2v8.13ZM6.35 0C2.01.01 0 3.05 0 5.63v8.73c0 2.58 2.01 5.62 6.35 5.63 4.34-.01 6.35-3.05 6.35-5.63V5.63C12.7 3.05 10.68.01 6.35 0M34.17 19.64v-7.6h5.86v-3.9H34.2V4.27h6.79V.35H30.26v19.29zM47.63 6.37l1.57 6.07h-3.16l1.6-6.07Zm3.43 13.27h3.91L49.85.35h-4.57l-5.03 19.29h3.93l.9-3.42h5.1zM23.27 9.99 28.26.35h-4.53L21 5.97 18.26.35h-4.53l5 9.64-5.03 9.65h4.59l2.71-5.6 2.7 5.6h4.59zM67.58.35l-3.45 7.42-3.5-7.42h-4.02v19.29h3.84V8.67l2.46 5.13h2.45l2.46-5.11v10.95h3.83V.35z" class="cls-1"/></g></svg>