<svg version="1.1" id="Layer_1" xmlns="http://www.w3.org/2000/svg" x="0" y="0" viewBox="0 0 146.5 17.8" style="enable-background:new 0 0 146.5 17.8" xml:space="preserve"><path d="M0 .3C0 .1.1 0 .3 0h5.5c.1 0 .4.1.5.2l1.9 1.9c.1.1.2.3.2.5V7c0 .2-.1.4-.2.5l-.7.7c-.1.1-.1.3 0 .4l.7.7c.1.1.2.3.2.5v5.4c0 .1-.1.4-.2.5l-1.9 1.9c-.1.1-.3.2-.5.2H.3c-.2 0-.3-.1-.3-.3V.3zm2.8 2.2c-.2 0-.3.1-.3.3v4.1c0 .2.1.3.3.3h2c.1 0 .4-.1.5-.2l.5-.5c0-.1.1-.3.1-.5V3.7c0-.1-.1-.4-.2-.5l-.5-.5c-.1-.1-.3-.2-.4-.2h-2zm3 12.1c.1-.1.2-.3.2-.5v-3.3c0-.2-.1-.4-.2-.5l-.5-.4c-.1-.1-.3-.2-.5-.2h-2c-.2 0-.3.1-.3.3v5.1c0 .2.1.3.3.3h2c.1 0 .4-.1.5-.2l.5-.6zM19.2 8.5c0 .2-.1.4-.2.5l-.7.7c-.1.1-.2.3-.1.5l1.3 7.4c0 .2-.1.3-.2.3h-2c-.2 0-.3-.1-.3-.3l-1.1-6.2c0-.1-.2-.3-.3-.3h-1.9c-.1 0-.3.1-.3.3v6.2c0 .1-.1.3-.3.3h-1.9c-.2 0-.3-.1-.3-.3V.3c-.1-.2 0-.3.1-.3h5.5c.2 0 .4.1.5.2l2 2c.1.1.2.3.2.5v5.8zM16.5 8c.1-.1.2-.3.2-.5V3.7c0-.1-.1-.4-.2-.5l-.5-.5c-.1-.1-.3-.2-.5-.2h-2c-.1 0-.3.1-.3.3v5.6c0 .2.1.3.3.3h2c.1 0 .3-.1.5-.2l.5-.5zM25.8.3c.1-.2.2-.3.4-.3h1.9c.1 0 .3.1.3.3l4.2 17.3c0 .2 0 .3-.2.3h-2c-.2 0-.3-.1-.4-.3l-.6-2.5c0-.1-.2-.3-.4-.3h-3.8c-.2 0-.3.1-.4.3l-.6 2.5c0 .2-.2.3-.4.3h-2c-.2 0-.3-.1-.2-.3L25.8.3zM25.6 12c0 .2.1.3.2.3h2.6c.2 0 .3-.1.2-.3l-1.4-6c0-.2-.1-.2-.1 0l-1.5 6zM40.4 9.2c0 .2 0 .2 0 0l.1-9c0-.1.1-.3.3-.3h1.9c.2 0 .3.1.3.3v17.3c0 .2-.1.3-.3.3h-1.5c-.2 0-.3-.1-.4-.3l-3.6-10c-.1-.1-.1-.1-.1 0v10c0 .2-.1.3-.3.3h-1.9c-.2 0-.3-.1-.3-.3V.3c0-.2.1-.3.3-.3h1.9c.2 0 .3.1.4.3l3.2 8.9zM45.5 17.8c-.2 0-.3-.1-.3-.3V.3c0-.2.1-.3.3-.3H51c.1 0 .4.1.5.2l1.9 1.9c.1.1.2.3.2.5v12.6c0 .1-.1.4-.2.5l-1.9 1.9c-.1.1-.3.2-.5.2h-5.5zm4.5-2.5c.1 0 .4-.1.5-.2l.5-.5c.1-.1.2-.3.2-.5V3.7c0-.2-.1-.4-.2-.5l-.5-.5c-.1-.1-.3-.2-.5-.2h-2c-.1 0-.3.1-.3.3v12.3c0 .1.1.3.3.3l2-.1zM67.7 9.2c.1.2.1.2 0 0l.1-9c0-.1.2-.2.3-.2H70c.2 0 .3.1.3.3v17.3c0 .2-.1.3-.3.3h-1.5c-.2 0-.3-.1-.4-.3l-3.6-10c-.1-.1-.1-.1-.1 0v10c0 .2-.1.3-.3.3h-1.9c-.2 0-.3-.1-.3-.3V.3c0-.2.1-.3.3-.3h1.9c.2 0 .3.1.4.3l3.2 8.9zM79.8 2.2c0 .2-.1.3-.3.3h-4.1c-.2 0-.3.1-.3.3v3.3c0 .2.1.3.3.3h3.1c.1 0 .3.1.3.3v1.9c0 .2-.1.3-.3.3h-3.1c-.2 0-.3.1-.3.3v5.9c0 .2.1.3.3.3h4.1c.1 0 .3.1.3.3v1.9c0 .2-.1.3-.3.3h-6.6c-.2 0-.3-.1-.3-.3V.3c0-.2.1-.3.3-.3h6.6c.1 0 .3.1.3.3v1.9zM92.2 10.8c0 .1.1.1 0 0l2-10.5c0-.1.2-.3.3-.3h1.9c.2 0 .3.1.2.3l-3.1 17.3c0 .2-.2.3-.3.3H91c-.2 0-.3-.1-.3-.3l-1.6-9.7c0-.2-.1-.2-.1 0l-1.5 9.7c0 .2-.2.3-.3.3H85c-.2 0-.3-.1-.3-.3L81.7.3c0-.1.1-.3.2-.3h2c.1 0 .3.1.3.3l1.9 10.5c0 .1.1.1.1 0L87.9.3c0-.1.1-.3.1-.3H90.5s.1.1.1.3l1.6 10.5zM106.8.2c.1-.1.3-.2.5-.2h3.2c.1 0 .4.1.5.2l1.9 1.9c.1.1.2.3.2.5V5c0 .2-.1.3-.3.3h-1.9c-.2 0-.3-.1-.3-.3V3.7c0-.1-.1-.4-.2-.5l-.5-.5c-.1-.1-.3-.2-.5-.2h-1.1c-.2 0-.4.1-.5.2l-.5.5c-.1.1-.2.3-.2.5v10.5c0 .2.1.4.2.5l.5.5c.1.1.3.2.5.2h1.1c.1 0 .4-.1.5-.2l.5-.5c.1-.1.2-.3.2-.5V9.9c0-.2-.1-.3-.3-.3h-1.2c-.2 0-.3-.1-.3-.3V7.4c0-.2.1-.3.3-.3h3.6c.1 0 .3.1.3.3v7.8c0 .1-.1.4-.2.5l-1.9 2c-.1.1-.3.2-.5.2h-3.2c-.1 0-.4-.1-.5-.2l-2-2c-.1-.1-.2-.3-.2-.5V2.6c0-.1.1-.3.2-.5l2.1-1.9zM121.1 14.7c.1-.1.2-.3.2-.5V.3c0-.2.1-.3.3-.3h1.9c.2 0 .3.1.3.3v14.9c0 .2-.1.4-.2.5l-1.9 1.9c-.1.1-.3.2-.5.2H118c-.2 0-.4-.1-.5-.2l-1.9-1.9c-.1-.1-.2-.3-.2-.5V.3c0-.2.1-.3.3-.3h1.9c.1 0 .3.1.3.3v13.9c0 .2.1.4.2.5l.5.5c.1.1.3.2.5.2h1.1c.2 0 .4-.1.5-.2l.4-.5zM130.8 5.3c0 .2.1.2.2 0l2-5c0-.1.2-.3.4-.3h2.1c.1 0 .2.1.2.3l-3.5 8.6c-.1.1-.1.4-.1.5v8.1c0 .2-.1.3-.3.3H130c-.2 0-.3-.1-.3-.3v-8c0-.2 0-.4-.1-.5L126.1.4c-.1-.1 0-.3.2-.3h2.1c.1 0 .3.1.4.3l2 4.9zM140.2.2c.1-.1.3-.2.5-.2h3.2c.2 0 .4.1.5.2l1.9 1.9c.1.1.2.3.2.5V5c0 .2-.1.3-.3.3h-1.9c-.1 0-.3-.1-.3-.3V3.7c0-.1-.1-.4-.2-.5l-.5-.5c-.1-.1-.3-.2-.5-.2h-1.1c-.1 0-.4.1-.5.2l-.5.5c-.1.1-.2.3-.2.5v2.5c0 .1.1.4.2.5l.5.5c.1.1.3.2.5.2h2.1c.1 0 .4.1.5.2l2 1.9c.1.1.2.3.2.5v5.3c0 .1-.1.4-.2.5l-1.9 2c-.1.1-.3.2-.5.2h-3.2c-.1 0-.4-.1-.5-.2l-1.9-2c-.1-.1-.2-.3-.2-.5v-3c0-.2.1-.3.3-.3h1.9c.2 0 .3.1.3.3v2c0 .2.1.4.2.5l.5.5c.1.1.3.2.5.2h1.1c.2 0 .4-.1.5-.2l.5-.5c.1-.1.2-.3.2-.5V11c0-.2-.1-.4-.2-.5l-.5-.5c-.1-.1-.3-.2-.5-.2h-2.1c-.1 0-.4-.1-.5-.2l-2-1.9c-.1-.1-.2-.3-.2-.5V2.6c0-.1.1-.3.2-.5l1.9-1.9z"/></svg>