<svg version="1.1" id="Laag_1" xmlns="http://www.w3.org/2000/svg" x="0" y="0" viewBox="0 0 591.3 88.5" style="enable-background:new 0 0 591.3 88.5" xml:space="preserve"><style>.st0{fill:#fff}</style><path class="st0" d="M4.6 10c0-.6.5-1.1 1.1-1.1h21.9c.6 0 1.4.4 1.9.8l7.7 7.7c.5.5.8 1.3.8 1.9v17.6c0 .6-.4 1.5-.8 1.9l-2.7 2.8c-.5.5-.5 1.2-.1 1.6l2.9 2.9c.4.5.7 1.3.7 1.9v21.5c0 .6-.4 1.4-.8 1.9l-7.7 7.7c-.5.5-1.3.8-1.9.8H5.8c-.7 0-1.1-.5-1.1-1.1V10zm11 8.7c-.6 0-1.1.5-1.1 1.1v16.4c0 .7.5 1.1 1.1 1.1h8c.6 0 1.5-.3 1.9-.7l2-2c.4-.5.7-1.3.7-2v-9.4c0-.6-.4-1.5-.7-1.9l-2-2c-.4-.4-1.3-.7-1.9-.7h-8zM27.5 67c.4-.4.7-1.3.7-1.9V51.9c0-.6-.4-1.5-.7-2L25.6 48c-.5-.5-1.3-.8-1.9-.8h-8.2c-.6 0-1.1.6-1.1 1.1v20.3c0 .7.5 1.1 1.1 1.1h8c.6 0 1.5-.4 1.9-.7l2.1-2zM80.8 42.6c0 .7-.4 1.5-.8 2l-2.9 2.9c-.5.5-.7 1.3-.6 1.9l5.1 29.3c.1.7-.4 1.1-.9 1.1h-7.8c-.7 0-1.2-.5-1.3-1.1l-4.3-24.4c-.1-.6-.7-1-1.3-1h-7.7c-.6 0-1.1.5-1 1v24.4c0 .6-.6 1.1-1.1 1.1h-7.6c-.6 0-1.1-.5-1.2-1.1V10.1c0-.7.5-1.1 1.1-1.1h21.8c.7 0 1.5.4 2 .8l7.7 7.7c.5.5.8 1.3.8 1.9v23.2zm-10.7-2.1c.5-.5.8-1.3.8-2v-15c0-.6-.4-1.5-.8-1.9l-2-2c-.5-.5-1.3-.8-1.9-.8h-8c-.6 0-1.1.6-1.1 1.1V42c0 .6.6 1.1 1.1 1.1h8c.6 0 1.4-.3 1.9-.7l2-1.9zM107.3 10c.1-.6.7-1 1.4-1h7.4c.7-.1 1.3.5 1.4 1l16.7 68.6c.2.7-.3 1.1-.8 1.1h-8.1c-.6 0-1.2-.5-1.4-1.1l-2.3-9.8c-.1-.6-.7-1.1-1.4-1H105c-.7 0-1.3.5-1.4 1l-2.3 9.8c-.2.7-.7 1.1-1.4 1.1h-8.1c-.6 0-.9-.5-.8-1.1L107.3 10zm-.8 46.6c-.1.7.3 1.1.8 1.1h10.5c.7 0 1-.6.8-1.1l-5.9-24.1c-.2-.6-.5-.6-.6 0l-5.6 24.1zM166.4 45.6c.2.6.4.6.4-.1V10c0-.6.6-1.1 1.1-1.1h7.6c.7 0 1.1.6 1.1 1.1v68.6c0 .7-.5 1.1-1.1 1.1h-6.1c-.7 0-1.3-.5-1.5-1l-14.3-39.9c-.3-.6-.4-.5-.4.1v39.7c0 .7-.6 1.1-1.1 1.1h-7.6c-.6 0-1.1-.5-1.1-1.1V10.1c0-.7.5-1.1 1.1-1.1h7.6c.7 0 1.3.5 1.5 1l12.8 35.6zM187 79.7c-.7 0-1.1-.5-1.1-1.1V10.1c0-.7.5-1.1 1.1-1.1h21.9c.6 0 1.5.3 1.9.7l7.7 7.7c.5.5.8 1.3.8 2v49.9c0 .6-.4 1.5-.8 1.9l-7.7 7.7c-.4.5-1.3.8-1.9.8H187zm17.8-9.9c.6 0 1.5-.4 1.9-.8l2-2c.5-.4.8-1.3.8-1.9V23.5c0-.7-.4-1.5-.8-2l-2-2c-.4-.4-1.3-.7-1.9-.7h-8c-.6 0-1.1.5-1.1 1.1v48.8c0 .6.6 1.1 1.1 1.1h8zM274.8 45.6c.2.6.4.6.4-.1V10c0-.6.6-1.1 1.1-1.1h7.6c.7 0 1.1.6 1.1 1.1v68.6c0 .7-.5 1.1-1.1 1.1h-6.1c-.6 0-1.3-.5-1.5-1L262 38.8c-.3-.6-.4-.5-.4.1v39.7c0 .7-.6 1.1-1.1 1.1h-7.6c-.7 0-1.1-.5-1.1-1.1V10.1c0-.7.5-1.1 1.1-1.1h7.6c.7 0 1.3.5 1.5 1l12.8 35.6zM322.7 17.8c0 .6-.6 1.1-1.1 1.1h-16.3c-.7 0-1.1.5-1.1 1.1v13.2c0 .7.5 1.1 1.1 1.1h12.4c.6 0 1.1.6 1.1 1.1V43c0 .6-.6 1.1-1.1 1.1h-12.4c-.7 0-1.1.6-1.1 1.1v23.4c0 .7.5 1.1 1.1 1.1h16.3c.6 0 1.1.5 1.1 1.1v7.6c0 .7-.6 1.1-1.1 1.1h-26.2c-.7 0-1.1-.5-1.1-1.1V10.2c0-.7.5-1.1 1.1-1.1h26.2c.6 0 1.1.5 1.1 1.1v7.6zM372 51.6c.1.6.3.6.4 0l7.4-41.6c.1-.6.7-1 1.3-1h7.7c.7 0 1 .5.9 1l-12.2 68.6c-.1.7-.7 1.1-1.3 1.1h-8.5c-.7 0-1.2-.5-1.3-1.1L360.2 40c-.1-.6-.3-.6-.4 0l-6.1 38.6c-.1.7-.7 1.1-1.3 1.1h-8.5c-.7 0-1.2-.5-1.3-1.1L330.2 10c-.1-.6.3-1 .9-1h7.8c.6 0 1.2.5 1.3 1l7.4 41.6c.1.6.3.6.4 0l6.7-41.6c.1-.6.2-1 .3-1h9.9c.1 0 .3.5.4 1l6.7 41.6zM429.9 9.8c.4-.5 1.3-.8 1.9-.8h12.5c.6 0 1.4.4 1.9.8l7.7 7.7c.5.5.8 1.3.8 1.9V29c0 .7-.6 1.1-1.1 1.1H446c-.7 0-1.1-.5-1.1-1.1v-5.6c0-.6-.4-1.5-.7-1.9l-2-2c-.4-.5-1.3-.8-1.9-.8h-4.4c-.7 0-1.5.4-1.9.8l-2 2c-.4.4-.7 1.3-.7 1.9v41.7c0 .7.4 1.5.7 1.9l2 2c.4.4 1.2.7 1.9.7h4.4c.6 0 1.5-.4 1.9-.7l2-2c.4-.4.7-1.2.7-1.9V48.3c0-.7-.5-1.1-1.1-1.1h-4.6c-.7 0-1.1-.6-1.1-1.1v-7.6c0-.7.5-1.1 1.1-1.1h14.5c.6 0 1.1.5 1.1 1.1v30.8c0 .6-.4 1.5-.8 1.9l-7.7 7.8c-.5.4-1.3.7-1.9.7h-12.5c-.6 0-1.5-.4-1.9-.7l-7.8-7.8c-.4-.4-.7-1.3-.7-1.9V19.4c0-.6.4-1.4.7-1.9l7.7-7.7zM486.7 67.1c.5-.5.7-1.3.7-2v-55c0-.7.6-1.1 1.1-1.1h7.6c.7 0 1.1.5 1.1 1.1v59.2c0 .7-.4 1.5-.7 2l-7.7 7.7c-.5.4-1.3.7-2 .7h-12.4c-.7 0-1.5-.4-2-.7l-7.7-7.7c-.4-.5-.7-1.3-.7-2V10.1c0-.7.5-1.1 1.1-1.1h7.6c.6 0 1.1.5 1.1 1.1v55.1c0 .7.4 1.5.7 2l2 2c.5.4 1.3.7 2 .7h4.3c.7 0 1.5-.4 2-.7l1.9-2.1zM525.3 30c.2.7.6.7.8 0l8.1-20c.2-.6.9-1 1.5-1h8.5c.6 0 .9.5.7 1l-13.7 34.1c-.2.6-.4 1.6-.4 2.1v32.3c0 .7-.6 1.1-1.1 1.1H522c-.7 0-1.1-.5-1.1-1.1V46.4c0-.6-.2-1.6-.5-2.1L506.7 10c-.3-.6.1-1 .7-1h8.5c.6 0 1.3.5 1.5 1l7.9 20zM561.8 9.8c.5-.5 1.3-.8 1.9-.8h12.5c.7 0 1.5.4 2 .8l7.7 7.7c.4.5.7 1.3.7 1.9V29c0 .7-.5 1.1-1.1 1.1h-7.6c-.6 0-1.1-.5-1.1-1.1v-5.6c0-.6-.3-1.5-.7-1.9l-2-2c-.5-.4-1.3-.7-2-.7h-4.4c-.6 0-1.4.4-1.9.7l-2 2c-.5.4-.8 1.3-.8 1.9v9.8c0 .6.4 1.5.7 1.9l2 2c.4.5 1.2.8 1.9.8h8.5c.6 0 1.5.4 1.9.7l7.8 7.7c.4.5.7 1.3.7 2v20.9c0 .6-.4 1.5-.7 1.9l-7.7 7.8c-.5.4-1.3.7-2 .7h-12.5c-.6 0-1.4-.4-1.9-.7l-7.7-7.8c-.5-.4-.8-1.3-.8-1.9V57.4c0-.7.6-1.1 1.1-1.1h7.6c.7 0 1.1.5 1.1 1.1v7.8c0 .7.4 1.5.8 2l2 2c.5.4 1.3.7 1.9.7h4.4c.7 0 1.5-.4 2-.7l2-2c.5-.5.7-1.3.7-2V52.4c0-.7-.3-1.5-.7-2l-2-2c-.4-.5-1.2-.7-1.9-.7h-8.5c-.6 0-1.5-.4-1.9-.8l-7.8-7.7c-.4-.5-.7-1.3-.7-2V19.4c0-.6.4-1.4.8-1.9l7.7-7.7z"/></svg>